<svg xmlns="http://www.w3.org/2000/svg" viewBox="0 0 78.92 77.825" x="0px" y="0px"><title>oven-icons-liny-export</title><path d="M2.5,16.78H5.34a11.05,11.05,0,0,0,10.26-7h0a7.21,7.21,0,0,1,13.6,0h0a11,11,0,0,0,20.49,0h0a7.22,7.22,0,0,1,13.62,0h0a11,11,0,0,0,10.24,7h2.84a2.5,2.5,0,1,0,0-5H73.58a6,6,0,0,1-5.68-4c0-.05,0-.1-.07-.15a12.21,12.21,0,0,0-22.67.15h0a6,6,0,0,1-11.37,0h0a12.2,12.2,0,0,0-22.63-.24,2.44,2.44,0,0,0-.11.23,6,6,0,0,1-5.69,4H2.5a2.5,2.5,0,1,0,0,5Z"/><path d="M76.42,34.52H73.58a6,6,0,0,1-5.68-4c0-.05,0-.1-.07-.15a12.21,12.21,0,0,0-22.67.15h0a6,6,0,0,1-11.37,0h0a12.2,12.2,0,0,0-22.63-.24,2.38,2.38,0,0,0-.11.23,6,6,0,0,1-5.69,4H2.5a2.5,2.5,0,0,0,0,5H5.34a11.05,11.05,0,0,0,10.26-7h0a7.21,7.21,0,0,1,13.6,0h0a11,11,0,0,0,20.49,0h0a7.22,7.22,0,0,1,13.62,0h0a11,11,0,0,0,10.24,7h2.84a2.5,2.5,0,0,0,0-5Z"/><path d="M76.42,57.26H73.58a6,6,0,0,1-5.68-4c0-.05,0-.1-.07-.15a12.21,12.21,0,0,0-22.67.15h0a6,6,0,0,1-11.37,0h0A12.2,12.2,0,0,0,11.14,53a2.45,2.45,0,0,0-.11.23,6,6,0,0,1-5.69,4H2.5a2.5,2.5,0,0,0,0,5H5.34a11.05,11.05,0,0,0,10.26-7h0a7.21,7.21,0,0,1,13.6,0h0a11,11,0,0,0,20.49,0h0a7.22,7.22,0,0,1,13.62,0h0a11,11,0,0,0,10.24,7h2.84a2.5,2.5,0,0,0,0-5Z"/><text x="0" y="77.25999999999999" fill="#000000" font-size="5px" font-weight="bold" font-family="'Helvetica Neue', Helvetica, Arial-Unicode, Arial, Sans-serif"></text><text x="0" y="82.25999999999999" fill="#000000" font-size= "64px" font-weight="bold" font-family="'Helvetica Neue', Helvetica, Arial-Unicode, Arial, Sans-serif">from the Noun Project</text></svg>